<svg width="16" height="16" viewBox="0 0 16 16" fill="none" xmlns="http://www.w3.org/2000/svg">
<g clip-path="url(#clip0_3_40)">
<path d="M8.00008 2.66667C8.73646 2.66667 9.33341 2.06971 9.33341 1.33333C9.33341 0.596954 8.73646 0 8.00008 0C7.2637 0 6.66675 0.596954 6.66675 1.33333C6.66675 2.06971 7.2637 2.66667 8.00008 2.66667Z" fill="#8F281A"/>
<path d="M8.00008 9.33353C8.73646 9.33353 9.33341 8.73658 9.33341 8.0002C9.33341 7.26382 8.73646 6.66687 8.00008 6.66687C7.2637 6.66687 6.66675 7.26382 6.66675 8.0002C6.66675 8.73658 7.2637 9.33353 8.00008 9.33353Z" fill="#8F281A"/>
<path d="M8.00008 15.9998C8.73646 15.9998 9.33341 15.4029 9.33341 14.6665C9.33341 13.9301 8.73646 13.3331 8.00008 13.3331C7.2637 13.3331 6.66675 13.9301 6.66675 14.6665C6.66675 15.4029 7.2637 15.9998 8.00008 15.9998Z" fill="#8F281A"/>
</g>
<defs>
<clipPath id="clip0_3_40">
<rect width="16" height="16" fill="white"/>
</clipPath>
</defs>
</svg>
