<svg width="36" height="36" viewBox="0 0 36 36" fill="none" xmlns="http://www.w3.org/2000/svg">
<path d="M29.9159 18.1227C29.9193 16.9388 29.7439 15.7612 29.3956 14.6297C28.7285 12.4704 27.4599 10.546 25.7385 9.08184C24.017 7.61766 21.9139 6.67434 19.6756 6.36238C17.4374 6.05042 15.1565 6.38275 13.1003 7.32042C11.0441 8.2581 9.29764 9.7623 8.06555 11.6568" stroke="#8F281A" stroke-width="4.39731" stroke-linecap="round" stroke-linejoin="round"/>
<path d="M6.13311 18.1227C6.12967 19.3066 6.30506 20.4842 6.65335 21.6158C7.32046 23.775 8.58905 25.6994 10.3105 27.1636C12.032 28.6278 14.135 29.5711 16.3733 29.883C18.6116 30.195 20.8924 29.8627 22.9487 28.925C25.0049 27.9873 26.7513 26.4831 27.9834 24.5886" stroke="#8F281A" stroke-width="4.39731" stroke-linecap="round" stroke-linejoin="round"/>
<path d="M28.4294 16.6362L29.9159 18.1226L31.4023 16.6362" stroke="#8F281A" stroke-width="4.39731" stroke-linecap="round" stroke-linejoin="round"/>
<path d="M7.61956 19.6091L6.13314 18.1227L4.64673 19.6091" stroke="#8F281A" stroke-width="4.39731" stroke-linecap="round" stroke-linejoin="round"/>
<path d="M15.0516 22.5819H18.7677C19.359 22.5819 19.9261 22.347 20.3443 21.9289C20.7624 21.5108 20.9973 20.9437 20.9973 20.3523C20.9973 19.761 20.7624 19.1939 20.3443 18.7757C19.9261 18.3576 19.359 18.1227 18.7677 18.1227H17.2813C16.6899 18.1227 16.1228 17.8878 15.7047 17.4697C15.2865 17.0515 15.0516 16.4844 15.0516 15.8931C15.0516 15.3017 15.2865 14.7346 15.7047 14.3165C16.1228 13.8984 16.6899 13.6635 17.2813 13.6635H20.9973" stroke="#8F281A" stroke-width="4.39731" stroke-linecap="round" stroke-linejoin="round"/>
<path d="M18.0245 13.6634V12.177M18.0245 24.0683V22.5819" stroke="#8F281A" stroke-width="4.39731" stroke-linecap="round" stroke-linejoin="round"/>
</svg>
