<svg width="29" height="28" viewBox="0 0 29 28" fill="none" xmlns="http://www.w3.org/2000/svg">
<g clip-path="url(#clip0_1_4)">
<path d="M27.3065 16.4383L22.7915 21C22.683 21.1094 22.554 21.1961 22.4118 21.2554C22.2697 21.3146 22.1172 21.3451 21.9632 21.3451C21.8091 21.3451 21.6567 21.3146 21.5145 21.2554C21.3723 21.1961 21.2433 21.1094 21.1348 21C21.0255 20.8915 20.9387 20.7625 20.8795 20.6203C20.8202 20.4782 20.7897 20.3257 20.7897 20.1717C20.7897 20.0177 20.8202 19.8652 20.8795 19.723C20.9387 19.5808 21.0255 19.4518 21.1348 19.3433L25.2882 15.1667H1.49982C1.1904 15.1667 0.893656 15.0438 0.674864 14.825C0.456072 14.6062 0.333157 14.3094 0.333157 14C0.333157 13.6906 0.456072 13.3938 0.674864 13.175C0.893656 12.9563 1.1904 12.8333 1.49982 12.8333H25.3582L21.1348 8.61001C20.928 8.39303 20.8126 8.10477 20.8126 7.80501C20.8126 7.50524 20.928 7.21698 21.1348 7.00001C21.2433 6.89066 21.3723 6.80386 21.5145 6.74463C21.6567 6.6854 21.8091 6.65491 21.9632 6.65491C22.1172 6.65491 22.2697 6.6854 22.4118 6.74463C22.554 6.80386 22.683 6.89066 22.7915 7.00001L27.3065 11.4917C27.9619 12.1479 28.3301 13.0375 28.3301 13.965C28.3301 14.8925 27.9619 15.7821 27.3065 16.4383Z" fill="#8F281A"/>
</g>
<defs>
<clipPath id="clip0_1_4">
<rect width="28" height="28" fill="white" transform="matrix(-1 0 0 1 28.3334 0)"/>
</clipPath>
</defs>
</svg>
