<svg width="19" height="18" viewBox="0 0 19 18" fill="none" xmlns="http://www.w3.org/2000/svg">
<g clip-path="url(#clip0_1_94)">
<path d="M14.75 1.5H14V0.75C14 0.551088 13.921 0.360322 13.7803 0.21967C13.6397 0.0790176 13.4489 0 13.25 0C13.0511 0 12.8603 0.0790176 12.7197 0.21967C12.579 0.360322 12.5 0.551088 12.5 0.75V1.5H6.49998V0.75C6.49998 0.551088 6.42097 0.360322 6.28031 0.21967C6.13966 0.0790176 5.9489 0 5.74998 0C5.55107 0 5.36031 0.0790176 5.21966 0.21967C5.079 0.360322 4.99998 0.551088 4.99998 0.75V1.5H4.24998C3.25579 1.50119 2.30265 1.89666 1.59965 2.59966C0.896646 3.30267 0.501176 4.2558 0.499985 5.25L0.499985 14.25C0.501176 15.2442 0.896646 16.1973 1.59965 16.9003C2.30265 17.6033 3.25579 17.9988 4.24998 18H14.75C15.7442 17.9988 16.6973 17.6033 17.4003 16.9003C18.1033 16.1973 18.4988 15.2442 18.5 14.25V5.25C18.4988 4.2558 18.1033 3.30267 17.4003 2.59966C16.6973 1.89666 15.7442 1.50119 14.75 1.5ZM1.99998 5.25C1.99998 4.65326 2.23704 4.08097 2.65899 3.65901C3.08095 3.23705 3.65325 3 4.24998 3H14.75C15.3467 3 15.919 3.23705 16.341 3.65901C16.7629 4.08097 17 4.65326 17 5.25V6H1.99998V5.25ZM14.75 16.5H4.24998C3.65325 16.5 3.08095 16.2629 2.65899 15.841C2.23704 15.419 1.99998 14.8467 1.99998 14.25V7.5H17V14.25C17 14.8467 16.7629 15.419 16.341 15.841C15.919 16.2629 15.3467 16.5 14.75 16.5Z" fill="#BCBCBC"/>
<path d="M9.49998 12.375C10.1213 12.375 10.625 11.8713 10.625 11.25C10.625 10.6287 10.1213 10.125 9.49998 10.125C8.87866 10.125 8.37498 10.6287 8.37498 11.25C8.37498 11.8713 8.87866 12.375 9.49998 12.375Z" fill="#BCBCBC"/>
<path d="M5.74988 12.375C6.3712 12.375 6.87488 11.8713 6.87488 11.25C6.87488 10.6287 6.3712 10.125 5.74988 10.125C5.12856 10.125 4.62488 10.6287 4.62488 11.25C4.62488 11.8713 5.12856 12.375 5.74988 12.375Z" fill="#BCBCBC"/>
<path d="M13.2501 12.375C13.8714 12.375 14.3751 11.8713 14.3751 11.25C14.3751 10.6287 13.8714 10.125 13.2501 10.125C12.6288 10.125 12.1251 10.6287 12.1251 11.25C12.1251 11.8713 12.6288 12.375 13.2501 12.375Z" fill="#BCBCBC"/>
</g>
<defs>
<clipPath id="clip0_1_94">
<rect width="18" height="18" fill="white" transform="translate(0.499985)"/>
</clipPath>
</defs>
</svg>
