<svg width="13" height="12" viewBox="0 0 13 12" fill="none" xmlns="http://www.w3.org/2000/svg">
<g clip-path="url(#clip0_3_415)">
<path d="M12.0937 1.14245C11.9988 1.04785 11.8702 0.994743 11.7362 0.994743C11.6022 0.994743 11.4736 1.04785 11.3787 1.14245L8.99671 3.52444L8.83671 3.36794C8.41487 2.95592 7.86116 2.70599 7.27312 2.66217C6.68508 2.61836 6.10044 2.78348 5.62221 3.12844C4.93197 3.64894 4.16474 4.05853 3.34821 4.34244L2.31121 4.64644C1.97423 4.74536 1.66167 4.91367 1.39361 5.14057C1.12556 5.36747 0.907926 5.64793 0.754706 5.96394C0.604009 6.27566 0.520075 6.61542 0.508279 6.96145C0.496484 7.30749 0.557086 7.65218 0.686206 7.97344C1.17559 9.17482 2.01456 10.2015 3.09437 10.9204C4.17417 11.6393 5.44502 12.0173 6.74221 12.0054H7.20421C7.30758 12.0054 7.40844 11.9736 7.49321 11.9144C8.3733 11.34 9.12548 10.5901 9.70274 9.71187C10.28 8.83359 10.6699 7.84571 10.8482 6.80994C10.9102 6.41388 10.8766 6.00875 10.7502 5.62831C10.6239 5.24788 10.4084 4.90317 10.1217 4.62294L9.72171 4.23094L12.0952 1.85744C12.1896 1.76231 12.2424 1.63365 12.2422 1.49963C12.2419 1.36562 12.1885 1.23718 12.0937 1.14245ZM7.04021 10.9924H6.74021C6.00142 10.9935 5.26961 10.8496 4.58621 10.5689L4.59171 10.5659C5.46615 10.1272 6.21475 9.47338 6.76721 8.66594L7.02621 8.28544C7.10166 8.17471 7.13004 8.03854 7.10509 7.90689C7.08015 7.77524 7.00393 7.65889 6.89321 7.58344C6.78248 7.50798 6.64631 7.47961 6.51466 7.50455C6.38301 7.52949 6.26666 7.60571 6.19121 7.71644L5.93221 8.09694C5.47581 8.76273 4.85783 9.30173 4.13621 9.66343L3.51071 9.97843C3.01027 9.62666 2.5735 9.19209 2.21921 8.69343C3.0387 8.41773 3.78636 7.96268 4.40771 7.36144C4.50358 7.26768 4.55829 7.13968 4.55979 7.00559C4.56129 6.87151 4.50946 6.74231 4.41571 6.64644C4.32195 6.55056 4.19395 6.49586 4.05986 6.49436C3.92577 6.49286 3.79658 6.54468 3.70071 6.63844C3.14115 7.18062 2.45822 7.5787 1.71071 7.79844C1.68021 7.73094 1.64721 7.66494 1.61971 7.59544C1.54227 7.40526 1.50602 7.20084 1.51334 6.99563C1.52067 6.79043 1.5714 6.58911 1.66221 6.40494C1.75413 6.21583 1.8845 6.04799 2.04498 5.91213C2.20546 5.77627 2.39252 5.67539 2.59421 5.61594L3.63071 5.31194C4.23218 5.11872 4.80753 4.85204 5.34371 4.51794L9.3012 8.37394C8.77538 9.42066 7.99861 10.3209 7.04021 10.9944V10.9924ZM9.85021 6.65094C9.81198 6.88486 9.7604 7.11641 9.69571 7.34444L6.21021 3.94994C6.46591 3.76616 6.77281 3.66718 7.08771 3.66694C7.47724 3.66645 7.85141 3.81888 8.12971 4.09144L9.41421 5.34594C9.58569 5.51335 9.71472 5.71928 9.79055 5.94662C9.86639 6.17395 9.88684 6.41611 9.85021 6.65294V6.65094Z" fill="#8F281A"/>
</g>
<defs>
<clipPath id="clip0_3_415">
<rect width="12" height="12" fill="white" transform="translate(0.236328)"/>
</clipPath>
</defs>
</svg>
