<svg width="19" height="18" viewBox="0 0 19 18" fill="none" xmlns="http://www.w3.org/2000/svg">
<path d="M14.4324 6.1575C14.3626 6.08721 14.2797 6.03141 14.1883 5.99333C14.0969 5.95526 13.9989 5.93565 13.8999 5.93565C13.8009 5.93565 13.7028 5.95526 13.6114 5.99333C13.52 6.03141 13.4371 6.08721 13.3674 6.1575L9.93237 9.59249C9.86265 9.66279 9.7797 9.71859 9.6883 9.75666C9.59691 9.79474 9.49888 9.81434 9.39987 9.81434C9.30086 9.81434 9.20283 9.79474 9.11144 9.75666C9.02004 9.71859 8.93709 9.66279 8.86737 9.59249L5.43237 6.1575C5.36265 6.08721 5.2797 6.03141 5.1883 5.99333C5.09691 5.95526 4.99888 5.93565 4.89987 5.93565C4.80086 5.93565 4.70283 5.95526 4.61144 5.99333C4.52004 6.03141 4.43709 6.08721 4.36737 6.1575C4.22768 6.29802 4.14928 6.48811 4.14928 6.68625C4.14928 6.88439 4.22768 7.07448 4.36737 7.215L7.80987 10.6575C8.23175 11.0788 8.80362 11.3155 9.39987 11.3155C9.99612 11.3155 10.568 11.0788 10.9899 10.6575L14.4324 7.215C14.5721 7.07448 14.6505 6.88439 14.6505 6.68625C14.6505 6.48811 14.5721 6.29802 14.4324 6.1575Z" fill="#BCBCBC"/>
</svg>
