<svg width="28" height="28" viewBox="0 0 28 28" fill="none" xmlns="http://www.w3.org/2000/svg">
<g clip-path="url(#clip0_1_19)">
<path d="M25.1426 8.01326C25.2251 8.01326 25.2251 8.01326 25.3072 8.01326L24.0701 3.22919C23.7402 1.82638 22.2549 1.00141 20.9349 1.41389L2.62136 6.2812C1.21892 6.61119 0.393952 8.09613 0.806435 9.41608L2.37387 15.3558V11.8085C2.37387 9.6643 4.1063 7.93187 6.25122 7.93187H25.1426V8.01326Z" fill="#BCBCBC"/>
<path d="M25.1426 9.33319H6.16837C4.76593 9.33319 3.61134 10.4885 3.61134 11.8906V23.9344C3.61134 25.3376 4.76629 26.4918 6.16837 26.4918H25.1426C26.5451 26.4918 27.6996 25.3365 27.6996 23.9344V11.8913C27.7004 10.4881 26.5451 9.33319 25.1426 9.33319ZM25.968 23.9355C25.968 24.4308 25.5558 24.7601 25.1434 24.7601H6.16911C5.67413 24.7601 5.34451 24.348 5.34451 23.9351V20.8835H26.0508V23.9351L25.968 23.9355ZM25.968 14.9433H5.34377V11.8913C5.34377 11.396 5.75625 11.0664 6.16837 11.0664H25.1426C25.638 11.0664 25.9672 11.4788 25.9672 11.8913L25.968 14.9433Z" fill="#BCBCBC"/>
</g>
<defs>
<clipPath id="clip0_1_19">
<rect width="27" height="27" fill="white" transform="translate(0.699997 0.399994)"/>
</clipPath>
</defs>
</svg>
