<svg width="28" height="28" viewBox="0 0 28 28" fill="none" xmlns="http://www.w3.org/2000/svg">
<g clip-path="url(#clip0_3_160)">
<path d="M25.1426 8.41329C25.2251 8.41329 25.2251 8.41329 25.3072 8.41329L24.0701 3.62921C23.7402 2.2264 22.2549 1.40143 20.9349 1.81392L2.62136 6.68122C1.21892 7.01121 0.393952 8.49615 0.806435 9.8161L2.37387 15.7559V12.2085C2.37387 10.0643 4.1063 8.3319 6.25122 8.3319H25.1426V8.41329Z" fill="#8F281A"/>
<path d="M25.1426 9.73322H6.16837C4.76593 9.73322 3.61134 10.8885 3.61134 12.2906V24.3344C3.61134 25.7376 4.76629 26.8918 6.16837 26.8918H25.1426C26.5451 26.8918 27.6996 25.7365 27.6996 24.3344V12.2914C27.7004 10.8882 26.5451 9.73322 25.1426 9.73322ZM25.968 24.3355C25.968 24.8309 25.5558 25.1601 25.1434 25.1601H6.16911C5.67413 25.1601 5.34451 24.748 5.34451 24.3351V21.2835H26.0508V24.3351L25.968 24.3355ZM25.968 15.3434H5.34377V12.2914C5.34377 11.796 5.75625 11.4664 6.16837 11.4664H25.1426C25.638 11.4664 25.9672 11.8789 25.9672 12.2914L25.968 15.3434Z" fill="#8F281A"/>
</g>
<defs>
<clipPath id="clip0_3_160">
<rect width="27" height="27" fill="white" transform="translate(0.699997 0.799988)"/>
</clipPath>
</defs>
</svg>
