<svg width="36" height="37" viewBox="0 0 36 37" fill="none" xmlns="http://www.w3.org/2000/svg">
<path opacity="0.4" d="M26.243 11.8798C26.1389 11.865 26.0349 11.865 25.9308 11.8798C23.6269 11.8055 21.7986 9.91777 21.7986 7.59896C21.7986 5.23556 23.7161 3.30322 26.0943 3.30322C28.4577 3.30322 30.3901 5.2207 30.3901 7.59896C30.3752 9.91777 28.5469 11.8055 26.243 11.8798Z" fill="#8F281A"/>
<path opacity="0.4" d="M31.0895 22.1806C29.4247 23.2954 27.0911 23.7116 24.9358 23.4292C25.5006 22.2103 25.7979 20.8577 25.8128 19.4307C25.8128 17.9443 25.4857 16.5322 24.8615 15.2985C27.0613 15.0012 29.395 15.4174 31.0747 16.5322C33.4232 18.0781 33.4232 20.6198 31.0895 22.1806Z" fill="#8F281A"/>
<path opacity="0.4" d="M9.76062 11.8798C9.86467 11.865 9.96872 11.865 10.0728 11.8798C12.3767 11.8055 14.205 9.91777 14.205 7.59896C14.205 5.23556 12.2875 3.30322 9.90927 3.30322C7.54587 3.30322 5.61353 5.2207 5.61353 7.59896C5.62839 9.91777 7.45668 11.8055 9.76062 11.8798Z" fill="#8F281A"/>
<path opacity="0.4" d="M9.92223 19.431C9.92223 20.8728 10.2344 22.2403 10.7992 23.474C8.70337 23.697 6.51834 23.2511 4.91301 22.1957C2.56448 20.635 2.56448 18.0932 4.91301 16.5325C6.50348 15.4623 8.74797 15.0312 10.8587 15.269C10.2492 16.5176 9.92223 17.9297 9.92223 19.431Z" fill="#8F281A"/>
<path d="M18.204 23.9198C18.0851 23.9049 17.9513 23.9049 17.8175 23.9198C15.0825 23.8306 12.8975 21.5861 12.8975 18.8214C12.8975 15.9972 15.1717 13.7081 18.0108 13.7081C20.8349 13.7081 23.124 15.9972 23.124 18.8214C23.124 21.5861 20.9539 23.8306 18.204 23.9198Z" fill="#8F281A"/>
<path d="M13.3732 26.9965C11.1287 28.4978 11.1287 30.9652 13.3732 32.4517C15.9298 34.161 20.1215 34.161 22.6782 32.4517C24.9227 30.9504 24.9227 28.4829 22.6782 26.9965C20.1364 25.2871 15.9447 25.2871 13.3732 26.9965Z" fill="#8F281A"/>
</svg>
