<svg width="16" height="25" viewBox="0 0 16 25" fill="none" xmlns="http://www.w3.org/2000/svg">
<path fill-rule="evenodd" clip-rule="evenodd" d="M11.8629 10.7645L14.745 13.6466C14.8671 13.7687 14.9528 13.9225 14.9925 14.0906C15.0322 14.2587 15.0243 14.4346 14.9697 14.5985L14.1752 16.982C14.1331 17.1084 14.0642 17.2243 13.9734 17.3218C13.8826 17.4193 13.7718 17.4961 13.6487 17.5471C13.5256 17.5981 13.393 17.6221 13.2598 17.6174C13.1266 17.6127 12.996 17.5794 12.8768 17.5198L11.2051 16.684" fill="#8F281A"/>
<path d="M11.8629 10.7645L14.745 13.6466C14.8671 13.7687 14.9528 13.9225 14.9925 14.0906C15.0322 14.2587 15.0243 14.4346 14.9697 14.5985L14.1752 16.982C14.1331 17.1084 14.0642 17.2243 13.9734 17.3218C13.8826 17.4193 13.7718 17.4961 13.6487 17.5471C13.5256 17.5981 13.393 17.6221 13.2598 17.6174C13.1266 17.6127 12.996 17.5794 12.8768 17.5198L11.2051 16.684" stroke="#8F281A" stroke-width="0.505502" stroke-linecap="round" stroke-linejoin="round"/>
<path fill-rule="evenodd" clip-rule="evenodd" d="M5.01222 16.6841L3.34063 17.5199C3.22144 17.5796 3.09083 17.6129 2.95763 17.6176C2.82444 17.6224 2.69178 17.5985 2.56865 17.5475C2.44551 17.4965 2.33477 17.4196 2.24394 17.3221C2.15311 17.2245 2.08431 17.1086 2.04219 16.9822L1.24775 14.5986C1.19311 14.4347 1.18519 14.2589 1.22487 14.0908C1.26454 13.9227 1.35025 13.7689 1.47239 13.6468L4.35456 10.7646" fill="#8F281A"/>
<path d="M5.01222 16.6841L3.34063 17.5199C3.22144 17.5796 3.09083 17.6129 2.95763 17.6176C2.82444 17.6224 2.69178 17.5985 2.56865 17.5475C2.44551 17.4965 2.33477 17.4196 2.24394 17.3221C2.15311 17.2245 2.08431 17.1086 2.04219 16.9822L1.24775 14.5986C1.19311 14.4347 1.18519 14.2589 1.22487 14.0908C1.26454 13.9227 1.35025 13.7689 1.47239 13.6468L4.35456 10.7646" stroke="#8F281A" stroke-width="0.505502" stroke-linecap="round" stroke-linejoin="round"/>
<path fill-rule="evenodd" clip-rule="evenodd" d="M11.8613 9.94599L11.0852 16.9306C11.0575 17.1793 10.9392 17.4091 10.7527 17.576C10.5662 17.7429 10.3248 17.8351 10.0745 17.8352H6.14272C5.89248 17.8351 5.65102 17.7429 5.46455 17.576C5.27808 17.4091 5.15969 17.1793 5.13202 16.9306L4.35598 9.94599C4.18078 8.36925 4.36247 6.7733 4.88759 5.27629C5.41271 3.77928 6.26781 2.41955 7.38959 1.29777C7.78671 0.900745 8.43052 0.900745 8.82764 1.29777C9.94942 2.41955 10.8045 3.77928 11.3296 5.27629C11.8548 6.7733 12.0365 8.36925 11.8613 9.94599ZM9.789 22.1255L8.10872 24.4L6.42843 22.1255C6.19857 21.8145 6.05955 21.4458 6.02686 21.0605C5.99418 20.6751 6.06911 20.2883 6.2433 19.943C6.4175 19.5977 6.68412 19.3076 7.01348 19.1049C7.34283 18.9022 7.72199 18.7949 8.10872 18.795C8.49542 18.795 8.87453 18.9023 9.20384 19.105C9.53315 19.3077 9.79973 19.5979 9.97392 19.9431C10.1481 20.2884 10.223 20.6752 10.1904 21.0605C10.1577 21.4458 10.0188 21.8145 9.789 22.1255Z" fill="#8F281A" stroke="#8F281A" stroke-width="0.505502" stroke-linecap="round" stroke-linejoin="round"/>
</svg>
