<svg width="370" height="247" viewBox="0 0 370 247" fill="none" xmlns="http://www.w3.org/2000/svg">
<g clip-path="url(#clip0_7_989)">
<path d="M88.1255 195.438C94.8759 202.308 107.499 200.86 107.499 200.86C107.499 200.86 109.169 188.272 102.412 181.405C95.6624 174.535 83.0454 175.979 83.0454 175.979C83.0454 175.979 81.375 188.567 88.1255 195.438Z" fill="url(#paint0_linear_7_989)"/>
<path d="M262.88 51.6014C255.812 55.6336 245.883 51.5517 245.883 51.5517C245.883 51.5517 247.422 40.9339 254.494 36.9066C261.563 32.8745 271.487 36.9519 271.487 36.9519C271.487 36.9519 269.949 47.5696 262.88 51.6014Z" fill="url(#paint1_linear_7_989)"/>
<path d="M133.534 64.1879C126.269 71.5826 112.682 70.0232 112.682 70.0232C112.682 70.0232 110.885 56.4751 118.157 49.0849C125.422 41.6903 139.002 43.2447 139.002 43.2447C139.002 43.2447 140.8 56.7933 133.534 64.1879Z" fill="url(#paint2_linear_7_989)"/>
<path d="M93.7619 134.034C97.2063 134.034 99.9985 136.966 99.9985 140.582C99.9985 144.199 97.2063 147.13 93.7619 147.13C90.3176 147.13 87.5254 144.199 87.5254 140.582C87.5254 136.966 90.3176 134.034 93.7619 134.034Z" fill="#E1E4E5"/>
<path d="M196.717 205.967C198.647 205.967 200.211 207.531 200.211 209.461C200.211 211.391 198.647 212.956 196.717 212.956C194.787 212.956 193.222 211.391 193.222 209.461C193.222 207.531 194.787 205.967 196.717 205.967Z" fill="#A30401"/>
<path d="M285.113 165.678C289.09 165.678 292.315 168.902 292.315 172.88C292.315 176.857 289.09 180.081 285.113 180.081C281.136 180.081 277.911 176.857 277.911 172.88C277.911 168.902 281.136 165.678 285.113 165.678Z" fill="#A30401"/>
<path d="M291.142 115.262C294.362 115.262 296.973 112.651 296.973 109.431C296.973 106.211 294.362 103.6 291.142 103.6C287.922 103.6 285.311 106.211 285.311 109.431C285.311 112.651 287.922 115.262 291.142 115.262Z" fill="#3D1515"/>
<path d="M101.792 97.7445C104.548 97.7445 106.782 95.5107 106.782 92.7552C106.782 89.9998 104.548 87.766 101.792 87.766C99.037 87.766 96.8032 89.9998 96.8032 92.7552C96.8032 95.5107 99.037 97.7445 101.792 97.7445Z" fill="#F8AE9D"/>
<path d="M130.044 212.846C131.707 212.846 133.055 211.582 133.055 210.023C133.055 208.464 131.707 207.2 130.044 207.2C128.382 207.2 127.033 208.464 127.033 210.023C127.033 211.582 128.382 212.846 130.044 212.846Z" fill="#E1E4E5"/>
<path d="M273.305 156.541C275.529 156.541 277.332 154.813 277.332 152.682C277.332 150.55 275.529 148.822 273.305 148.822C271.081 148.822 269.278 150.55 269.278 152.682C269.278 154.813 271.081 156.541 273.305 156.541Z" fill="#E1E4E5"/>
<path d="M257.1 201.755C259.683 201.755 261.777 199.661 261.777 197.078C261.777 194.494 259.683 192.4 257.1 192.4C254.517 192.4 252.423 194.494 252.423 197.078C252.423 199.661 254.517 201.755 257.1 201.755Z" fill="#E1E4E5"/>
<path d="M164.866 49.5216C166.071 49.5216 167.049 48.4047 167.049 47.027C167.049 45.6492 166.071 44.5323 164.866 44.5323C163.661 44.5323 162.683 45.6492 162.683 47.027C162.683 48.4047 163.661 49.5216 164.866 49.5216Z" fill="#E1E4E5"/>
<path d="M269.872 123.082C269.544 124.306 270.27 125.564 271.494 125.892C272.717 126.22 273.975 125.494 274.303 124.27C274.631 123.046 273.905 121.788 272.681 121.46C271.457 121.132 270.199 121.859 269.872 123.082Z" fill="#E1E4E5"/>
<path d="M269.183 96.063C270.905 96.063 272.301 94.6669 272.301 92.9447C272.301 91.2225 270.905 89.8264 269.183 89.8264C267.461 89.8264 266.064 91.2225 266.064 92.9447C266.064 94.6669 267.461 96.063 269.183 96.063Z" fill="#E1E4E5"/>
<path d="M104.488 119.016C105.693 119.016 106.67 118.178 106.67 117.145C106.67 116.111 105.693 115.274 104.488 115.274C103.282 115.274 102.305 116.111 102.305 117.145C102.305 118.178 103.282 119.016 104.488 119.016Z" fill="#E1E4E5"/>
<path d="M209.727 42.4531C209.044 45 210.556 47.6179 213.102 48.3003C215.649 48.9828 218.267 47.4713 218.95 44.9244C219.632 42.3775 218.121 39.7596 215.574 39.0772C213.027 38.3948 210.409 39.9062 209.727 42.4531Z" fill="#E1E4E5"/>
<path d="M66.7292 126.665H66.668C66.3058 131.798 62.489 131.877 62.489 131.877C62.489 131.877 66.698 131.959 66.698 137.89C66.698 131.959 70.9069 131.877 70.9069 131.877C70.9069 131.877 67.0914 131.798 66.7292 126.665ZM285.37 61.4985H285.265C284.641 70.3391 278.068 70.4751 278.068 70.4751C278.068 70.4751 285.317 70.617 285.317 80.8319C285.317 70.617 292.565 70.4751 292.565 70.4751C292.565 70.4751 285.994 70.3391 285.37 61.4985Z" fill="#E1E4E5"/>
<path fill-rule="evenodd" clip-rule="evenodd" d="M227.638 163.419V186.491C227.638 194.99 220.755 201.874 212.256 201.874H135.346C126.848 201.874 119.964 194.99 119.964 186.491V109.582C119.964 101.083 126.848 94.1995 135.346 94.1995H158.419" fill="url(#paint3_linear_7_989)"/>
<path fill-rule="evenodd" clip-rule="evenodd" d="M149.262 63.8994H237.26C248.064 63.8994 256.815 72.6503 256.815 83.4543V171.452C256.815 182.256 248.064 191.007 237.26 191.007H149.262C138.458 191.007 129.707 182.256 129.707 171.452V83.4543C129.707 72.6503 138.458 63.8994 149.262 63.8994Z" fill="#A30401"/>
<path d="M174.769 126.526L188.715 140.472L219.153 110.026" stroke="white" stroke-width="13.2069" stroke-linecap="round" stroke-linejoin="round"/>
</g>
<defs>
<linearGradient id="paint0_linear_7_989" x1="115.058" y1="218.906" x2="66.2568" y2="142.405" gradientUnits="userSpaceOnUse">
<stop stop-color="white"/>
<stop offset="1" stop-color="#EEEEEE"/>
</linearGradient>
<linearGradient id="paint1_linear_7_989" x1="235.586" y1="64.4828" x2="292.861" y2="13.521" gradientUnits="userSpaceOnUse">
<stop stop-color="white"/>
<stop offset="1" stop-color="#EEEEEE"/>
</linearGradient>
<linearGradient id="paint2_linear_7_989" x1="104.546" y1="89.4466" x2="157.071" y2="7.10926" gradientUnits="userSpaceOnUse">
<stop stop-color="white"/>
<stop offset="1" stop-color="#EEEEEE"/>
</linearGradient>
<linearGradient id="paint3_linear_7_989" x1="171.505" y1="33.8315" x2="174.825" y2="319.004" gradientUnits="userSpaceOnUse">
<stop stop-color="white"/>
<stop offset="1" stop-color="#EEEEEE"/>
</linearGradient>
<clipPath id="clip0_7_989">
<rect width="370" height="246.667" fill="white"/>
</clipPath>
</defs>
</svg>
